<svg width="32" height="32" viewBox="0 0 32 32" fill="none" xmlns="http://www.w3.org/2000/svg">
  <defs>
    <linearGradient id="logoGradient" x1="0%" y1="0%" x2="100%" y2="100%">
      <stop offset="0%" style="stop-color:#4F46E5"/>
      <stop offset="50%" style="stop-color:#22D3EE"/>
      <stop offset="100%" style="stop-color:#A78BFA"/>
    </linearGradient>
  </defs>
  
  <!-- Outer Ring -->
  <circle cx="16" cy="16" r="15" stroke="url(#logoGradient)" stroke-width="2" fill="none"/>
  
  <!-- Inner AI Circuit Pattern -->
  <path d="M8 12h4v2h-4zM8 16h6v2h-6zM8 20h4v2h-4z" fill="url(#logoGradient)" opacity="0.6"/>
  <path d="M20 12h4v2h-4zM18 16h6v2h-6zM20 20h4v2h-4z" fill="url(#logoGradient)" opacity="0.6"/>
  
  <!-- Central C -->
  <path d="M16 6C10.48 6 6 10.48 6 16s4.48 10 10 10c1.86 0 3.6-.51 5.1-1.4l-1.2-1.6C18.6 23.6 17.36 24 16 24c-4.42 0-8-3.58-8-8s3.58-8 8-8c1.36 0 2.6.4 3.9 1l1.2-1.6C19.6 6.51 17.86 6 16 6z" fill="url(#logoGradient)"/>
  
  <!-- Connection Dots -->
  <circle cx="16" cy="8" r="1.5" fill="url(#logoGradient)"/>
  <circle cx="24" cy="16" r="1.5" fill="url(#logoGradient)"/>
  <circle cx="16" cy="24" r="1.5" fill="url(#logoGradient)"/>
</svg>